<svg xmlns="http://www.w3.org/2000/svg" viewBox="0 0 200 200" width="200" height="200">
  <rect width="200" height="200" fill="#E0F7FA"/>
  <circle cx="85" cy="55" r="18" fill="#FFD4A3"/>
  <line x1="85" y1="73" x2="85" y2="120" stroke="#00BCD4" stroke-width="6"/>
  <line x1="85" y1="85" x2="60" y2="95" stroke="#00BCD4" stroke-width="5"/>
  <line x1="85" y1="85" x2="115" y2="80" stroke="#00BCD4" stroke-width="5"/>
  <circle cx="78" cy="52" r="2" fill="#333"/>
  <circle cx="92" cy="52" r="2" fill="#333"/>
  <rect x="110" y="85" width="45" height="35" rx="2" fill="#B2EBF2" stroke="#00ACC1" stroke-width="2"/>
  <line x1="118" y1="92" x2="147" y2="92" stroke="#0097A7" stroke-width="1"/>
  <line x1="118" y1="97" x2="143" y2="97" stroke="#0097A7" stroke-width="1"/>
  <line x1="118" y1="102" x2="145" y2="102" stroke="#0097A7" stroke-width="1"/>
  <line x1="118" y1="107" x2="140" y2="107" stroke="#0097A7" stroke-width="1"/>
  <path d="M 125 75 L 130 70 L 135 75 L 130 105 L 128 107 Z" fill="#FFD54F" stroke="#F9A825" stroke-width="1.5"/>
  <line x1="130" y1="70" x2="128" y2="107" stroke="#FFA000" stroke-width="2"/>
</svg>
